<svg width="20" height="20" viewBox="0 0 20 20" fill="none" xmlns="http://www.w3.org/2000/svg">
<path d="M15.8068 9.1832C15.711 9.08656 15.597 9.00985 15.4713 8.95751C15.3457 8.90516 15.2109 8.87821 15.0748 8.87821C14.9387 8.87821 14.8039 8.90516 14.6783 8.95751C14.5526 9.00985 14.4386 9.08656 14.3427 9.1832L10.9505 12.5857V4.75989C10.9505 4.48644 10.8419 4.22418 10.6485 4.03082C10.4551 3.83745 9.91942 3.72882 9.91942 3.72882C9.91942 3.72882 9.3837 3.83745 9.19034 4.03082C8.99698 4.22418 8.88835 4.48644 8.88835 4.75989V12.5857L5.49611 9.1832C5.30196 8.98904 5.03863 8.87997 4.76405 8.87997C4.48948 8.87997 4.22614 8.98904 4.03199 9.1832C3.83783 9.37735 3.72876 9.64068 3.72876 9.91526C3.72876 10.1898 3.83783 10.4532 4.03199 10.6473L9.18736 15.8027C9.28542 15.8966 9.40105 15.9701 9.52761 16.0192C9.65103 16.0738 9.78448 16.1019 9.91942 16.1019C10.0544 16.1019 10.1878 16.0738 10.3112 16.0192C10.4378 15.9701 10.5534 15.8966 10.6515 15.8027L15.8068 10.6473C15.9035 10.5515 15.9802 10.4374 16.0325 10.3118C16.0849 10.1861 16.1118 10.0514 16.1118 9.91526C16.1118 9.77915 16.0849 9.64438 16.0325 9.51873C15.9802 9.39309 15.9035 9.27905 15.8068 9.1832Z" fill="#EFEFF8"/>
</svg>
