<svg width="97" height="85" viewBox="0 0 97 85" fill="none" xmlns="http://www.w3.org/2000/svg">
<path d="M75.6538 2.03418H7.11328C7.19729 4.02016 7.85642 5.93896 9.01055 7.55734C10.7954 9.69352 14.1261 10.593 14.8429 12.8416" stroke="#F7F7F7" stroke-width="3.52751" stroke-miterlimit="10" stroke-linecap="round"/>
<path d="M21.6592 2.03418H90.2279C90.1438 4.02016 89.4847 5.93896 88.3306 7.55734C86.5457 9.69352 83.215 10.593 82.4982 12.8416" stroke="#F7F7F7" stroke-width="3.52751" stroke-miterlimit="10" stroke-linecap="round"/>
<path d="M23.3047 72.0794V82.7181H74.039V71.6016H23.3047" stroke="#F7F7F7" stroke-width="3.52751" stroke-miterlimit="10" stroke-linecap="round"/>
<path d="M31.7646 82.7181V71.6016" stroke="#F7F7F7" stroke-width="3.52751" stroke-miterlimit="10" stroke-linecap="round"/>
<path d="M40.21 82.7169V72.0781" stroke="#F7F7F7" stroke-width="3.52751" stroke-miterlimit="10" stroke-linecap="round"/>
<path d="M48.6699 82.7181V71.6016" stroke="#F7F7F7" stroke-width="3.52751" stroke-miterlimit="10" stroke-linecap="round"/>
<path d="M57.1172 82.7181V71.6016" stroke="#F7F7F7" stroke-width="3.52751" stroke-miterlimit="10" stroke-linecap="round"/>
<path d="M65.5791 82.7181V71.6016" stroke="#F7F7F7" stroke-width="3.52751" stroke-miterlimit="10" stroke-linecap="round"/>
<path d="M13.1006 12.4912C21.1253 12.4912 35.6711 18.9841 49.9779 18.9841C63.5258 18.9841 76.8488 12.4912 84.2411 12.4912" stroke="#F7F7F7" stroke-width="3.52751" stroke-miterlimit="10" stroke-linecap="round"/>
<path d="M53.3366 59.8797C53.1904 54.2834 51.5818 48.8229 48.6708 44.041C45.7597 48.8229 44.1511 54.2834 44.0049 59.8797" stroke="#F7F7F7" stroke-width="3.52751" stroke-miterlimit="10" stroke-linecap="round"/>
<path d="M36.6268 62.5367C36.6268 62.5367 32.495 12.8283 13.0164 12.491C3.83925 12.3364 1.9982 18.9136 2.3917 22.3286C3.40358 30.8453 16.6423 31.9134 17.2326 22.9751C17.4996 18.9136 11.3299 17.0866 9.39051 21.5697" stroke="#F7F7F7" stroke-width="3.52751" stroke-miterlimit="10" stroke-linecap="round"/>
<path d="M36.7959 63.1117C36.7959 63.1117 32.5798 34.8214 24.1475 33.6689" stroke="#F7F7F7" stroke-width="3.52751" stroke-miterlimit="10" stroke-linecap="round"/>
<path d="M45.1158 33.1628C45.5655 29.7477 45.0315 25.8548 43.9493 24.4634C42.5439 22.7208 40.1688 26.9229 38.7213 30.9844C34.0695 44.0826 36.7959 63.1115 36.7959 63.1115" stroke="#F7F7F7" stroke-width="3.52751" stroke-miterlimit="10" stroke-linecap="round"/>
<path d="M29.4454 63.9698C29.4746 61.0947 29.1345 58.2277 28.4335 55.4391C27.5141 52.3946 25.7206 49.6873 23.2758 47.6533C22.638 48.6682 22.1948 49.7929 21.9688 50.97" stroke="#F7F7F7" stroke-width="3.52751" stroke-miterlimit="10" stroke-linecap="round"/>
<path d="M60.7168 62.5367C60.7168 62.5367 64.8486 12.8283 84.3272 12.491C93.4903 12.3364 95.3455 18.9136 94.9519 22.3286C93.9401 30.8453 80.7014 31.9134 80.1111 22.9751C79.8441 18.9136 86.0137 17.0866 87.9531 21.5697" stroke="#F7F7F7" stroke-width="3.52751" stroke-miterlimit="10" stroke-linecap="round"/>
<path d="M60.5459 63.1117C60.5459 63.1117 64.762 34.8214 73.1944 33.6689" stroke="#F7F7F7" stroke-width="3.52751" stroke-miterlimit="10" stroke-linecap="round"/>
<path d="M52.2253 33.1628C51.7755 29.7477 52.3096 25.8548 53.3917 24.4634C54.7971 22.7208 57.1722 26.9229 58.6198 30.9844C63.2716 44.0826 60.5451 63.1115 60.5451 63.1115" stroke="#F7F7F7" stroke-width="3.52751" stroke-miterlimit="10" stroke-linecap="round"/>
<path d="M67.8963 63.9698C67.867 61.0947 68.2071 58.2277 68.9081 55.4391C69.8275 52.3946 71.621 49.6873 74.0659 47.6533C74.6966 48.6717 75.1393 49.7951 75.3729 50.97" stroke="#F7F7F7" stroke-width="3.52751" stroke-miterlimit="10" stroke-linecap="round"/>
<path d="M60.7168 62.5367C60.7168 62.5367 64.8486 12.8283 84.3272 12.491C93.4903 12.3364 95.3455 18.9136 94.9519 22.3286C93.9401 30.8453 80.7014 31.9134 80.1111 22.9751C79.8441 18.9136 86.0137 17.0866 87.9531 21.5697" stroke="#F7F7F7" stroke-width="3.52751" stroke-miterlimit="10" stroke-linecap="round"/>
<path d="M60.5459 63.1117C60.5459 63.1117 64.762 34.8214 73.1944 33.6689" stroke="#F7F7F7" stroke-width="3.52751" stroke-miterlimit="10" stroke-linecap="round"/>
<path d="M52.2253 33.1628C51.7755 29.7477 52.3096 25.8548 53.3917 24.4634C54.7971 22.7208 57.1722 26.9229 58.6198 30.9844C63.2716 44.0826 60.5451 63.1115 60.5451 63.1115" stroke="#F7F7F7" stroke-width="3.52751" stroke-miterlimit="10" stroke-linecap="round"/>
<path d="M67.8963 63.9698C67.867 61.0947 68.2071 58.2277 68.9081 55.4391C69.8275 52.3946 71.621 49.6873 74.0659 47.6533C74.6966 48.6717 75.1393 49.7951 75.3729 50.97" stroke="#F7F7F7" stroke-width="3.52751" stroke-miterlimit="10" stroke-linecap="round"/>
<path d="M77.4391 64.5742H19.8887" stroke="#F7F7F7" stroke-width="3.52751" stroke-miterlimit="10" stroke-linecap="round"/>
</svg>
