<svg width="67" height="84" viewBox="0 0 67 84" fill="none" xmlns="http://www.w3.org/2000/svg">
<g clip-path="url(#clip0_252_841)">
<path d="M10.1768 41.2021V81.4526H56.2898V41.2021" stroke="#F7F7F7" stroke-width="3.47058" stroke-miterlimit="10" stroke-linecap="round"/>
<path d="M17.8516 81.4526V41.2021" stroke="#F7F7F7" stroke-width="3.47058" stroke-miterlimit="10" stroke-linecap="round"/>
<path d="M25.5391 81.4526V41.2021" stroke="#F7F7F7" stroke-width="3.47058" stroke-miterlimit="10" stroke-linecap="round"/>
<path d="M33.2275 81.4526V41.2021" stroke="#F7F7F7" stroke-width="3.47058" stroke-miterlimit="10" stroke-linecap="round"/>
<path d="M40.9141 81.4522V40.8838" stroke="#F7F7F7" stroke-width="3.47058" stroke-miterlimit="10" stroke-linecap="round"/>
<path d="M48.6016 81.4522V40.8838" stroke="#F7F7F7" stroke-width="3.47058" stroke-miterlimit="10" stroke-linecap="round"/>
<path d="M57.4507 33.7627H9.01465" stroke="#F7F7F7" stroke-width="3.47058" stroke-miterlimit="10" stroke-linecap="round"/>
<path d="M48.6991 8.97168H1.68731V17.3785C1.58569 19.5052 2.29615 21.5911 3.67479 23.2136C5.05342 24.8361 6.99719 25.8741 9.11241 26.1172" stroke="#F7F7F7" stroke-width="3.47058" stroke-miterlimit="10" stroke-linecap="round"/>
<path d="M17.7539 8.97168H64.7657V17.3785C64.8677 19.5031 64.1591 21.5871 62.7833 23.2093C61.4076 24.8315 59.4672 25.8708 57.3545 26.1172" stroke="#F7F7F7" stroke-width="3.47058" stroke-miterlimit="10" stroke-linecap="round"/>
<path d="M1.72949 2.07129H64.7254V8.97097" stroke="#F7F7F7" stroke-width="3.47058" stroke-miterlimit="10" stroke-linecap="round"/>
</g>
<defs>
<clipPath id="clip0_252_841">
<rect width="66.4526" height="82.8514" fill="white" transform="translate(0 0.342773)"/>
</clipPath>
</defs>
</svg>
