<svg width="35" height="35" viewBox="0 0 35 35" fill="none" xmlns="http://www.w3.org/2000/svg">
<path d="M13.8123 32.0832C16.4971 32.0832 18.6735 29.9068 18.6735 27.222V22.3608H13.8123C11.1276 22.3608 8.95117 24.5373 8.95117 27.222C8.95117 29.9068 11.1276 32.0832 13.8123 32.0832Z" fill="#0ACF83"/>
<path d="M8.95117 17.4998C8.95117 14.8151 11.1276 12.6387 13.8123 12.6387H18.6735V22.361H13.8123C11.1276 22.361 8.95117 20.1845 8.95117 17.4998Z" fill="#A259FF"/>
<path d="M8.95117 7.77768C8.95117 5.09291 11.1276 2.9165 13.8123 2.9165H18.6735V12.6388H13.8123C11.1276 12.6388 8.95117 10.4624 8.95117 7.77768Z" fill="#F24E1E"/>
<path d="M18.6738 2.9165H23.535C26.2198 2.9165 28.3961 5.09291 28.3961 7.77768C28.3961 10.4624 26.2198 12.6388 23.535 12.6388H18.6738V2.9165Z" fill="#FF7262"/>
<path d="M28.3961 17.4998C28.3961 20.1845 26.2198 22.361 23.535 22.361C20.8502 22.361 18.6738 20.1845 18.6738 17.4998C18.6738 14.8151 20.8502 12.6387 23.535 12.6387C26.2198 12.6387 28.3961 14.8151 28.3961 17.4998Z" fill="#1ABCFE"/>
</svg>
