<svg width="27" height="33" viewBox="0 0 27 33" fill="none" xmlns="http://www.w3.org/2000/svg">
<path d="M8.10259 11.0684L8.09926 11.0711L8.09608 11.0742L8.10259 11.0684ZM22.8533 10.7919C22.7502 10.6926 22.6358 10.6056 22.5125 10.5329C22.3379 10.4301 22.1441 10.3643 21.943 10.3394C21.742 10.3145 21.538 10.3312 21.3436 10.3883C21.1493 10.4454 20.9687 10.5417 20.813 10.6714C20.6574 10.8011 20.53 10.9613 20.4387 11.1422C19.9283 12.1479 19.2243 13.0429 18.3671 13.7759C18.4982 13.0374 18.5643 12.2888 18.5646 11.5387C18.5674 9.25672 17.9654 7.01481 16.8199 5.04118C15.6745 3.06756 14.0265 1.43271 12.0438 0.303094C11.8254 0.179279 11.5791 0.112984 11.328 0.110428C11.077 0.107873 10.8294 0.169142 10.6085 0.288485C10.3876 0.407828 10.2006 0.581334 10.0652 0.79272C9.92971 1.00411 9.85017 1.24645 9.83401 1.49699C9.75108 2.90207 9.38376 4.27568 8.7543 5.53461C8.12484 6.79353 7.24635 7.91156 6.17205 8.82095L5.83052 9.0988C4.70713 9.85469 3.71277 10.7865 2.8856 11.8585C1.5998 13.4783 0.709085 15.3755 0.284101 17.3995C-0.140883 19.4235 -0.088452 21.5187 0.437236 23.5189C0.962924 25.5191 1.94741 27.3693 3.31262 28.9228C4.67783 30.4763 6.38622 31.6904 8.3023 32.4687C8.52728 32.5606 8.77142 32.5958 9.01319 32.5711C9.25496 32.5463 9.48693 32.4625 9.68864 32.3269C9.89035 32.1913 10.0556 32.0082 10.1698 31.7937C10.284 31.5792 10.3437 31.3398 10.3435 31.0968C10.3425 30.9396 10.3176 30.7835 10.2697 30.6337C9.93819 29.3875 9.84272 28.0902 9.98824 26.8089C11.3905 29.4536 13.6413 31.55 16.3788 32.761C16.713 32.9105 17.0907 32.9306 17.4389 32.8175C19.6017 32.1194 21.5502 30.8798 23.0991 29.2166C24.648 27.5533 25.7459 25.5217 26.2884 23.3146C26.831 21.1076 26.8002 18.7985 26.1989 16.6067C25.5977 14.4149 24.446 12.4133 22.8533 10.7919V10.7919ZM17.0669 29.8059C15.7752 29.1513 14.6357 28.2321 13.7226 27.1082C12.8094 25.9842 12.143 24.6806 11.7668 23.2822C11.6518 22.8114 11.563 22.3345 11.5005 21.8539C11.4582 21.5478 11.3212 21.2626 11.1089 21.0382C10.8965 20.8137 10.6193 20.6613 10.316 20.6021C10.2226 20.5837 10.1276 20.5745 10.0323 20.5746C9.77188 20.5745 9.51601 20.6431 9.29052 20.7735C9.06503 20.9038 8.8779 21.0913 8.74799 21.3171C7.51844 23.4378 6.90009 25.8576 6.96149 28.3082C5.88008 27.4674 4.9763 26.4203 4.30253 25.2277C3.62876 24.035 3.1984 22.7205 3.03641 21.3603C2.87441 20.0001 2.98398 18.6212 3.35879 17.3037C3.73359 15.9861 4.36617 14.7561 5.21986 13.6848C5.86805 12.8429 6.65 12.113 7.53454 11.5243C7.57284 11.4995 7.60957 11.4725 7.64453 11.4432C7.64453 11.4432 8.08419 11.0794 8.09921 11.0711C10.2104 9.2854 11.712 6.88558 12.3948 4.20605C14.0094 5.69864 15.086 7.68257 15.4574 9.84978C15.8289 12.017 15.4744 14.2462 14.449 16.1913C14.3135 16.4508 14.2579 16.7447 14.2893 17.0358C14.3206 17.3269 14.4375 17.6022 14.6251 17.827C14.8127 18.0517 15.0627 18.2159 15.3435 18.2988C15.6243 18.3816 15.9233 18.3795 16.2029 18.2926C18.4728 17.581 20.4703 16.1912 21.9264 14.31C22.8015 15.6027 23.3736 17.0761 23.6002 18.6206C23.8267 20.1651 23.7017 21.7408 23.2346 23.2302C22.7675 24.7197 21.9703 26.0846 20.9024 27.2231C19.8345 28.3617 18.5234 29.2446 17.0669 29.806L17.0669 29.8059Z" fill="#4B4B4B"/>
</svg>
