<svg width="17" height="23" viewBox="0 0 17 23" fill="none" xmlns="http://www.w3.org/2000/svg">
<path d="M16.9195 16.1C16.8596 15.9602 16.7775 15.8319 16.6769 15.7205L11.5701 10.35C11.3591 10.1616 11.0877 10.0631 10.8101 10.0743C10.5325 10.0855 10.2692 10.2055 10.0728 10.4103C9.87634 10.6151 9.76127 10.8897 9.75054 11.1791C9.73982 11.4685 9.83424 11.7515 10.0149 11.9715L13.2356 15.3295H5.51483C4.63726 15.3295 3.79563 14.966 3.17509 14.319C2.55455 13.672 2.20593 12.7945 2.20593 11.8795V1.15C2.20593 0.845 2.08973 0.552494 1.88288 0.336827C1.67604 0.12116 1.39549 0 1.10297 0C0.810442 0 0.529898 0.12116 0.323052 0.336827C0.116205 0.552494 0 0.845 0 1.15V11.9255C0 13.4505 0.581026 14.913 1.61526 15.9913C2.64949 17.0697 4.05221 17.6755 5.51483 17.6755H13.2356L10.0149 21.0335C9.91156 21.1404 9.8295 21.2676 9.77351 21.4077C9.71751 21.5479 9.68868 21.6982 9.68868 21.85C9.68868 22.0018 9.71751 22.1521 9.77351 22.2922C9.8295 22.4324 9.91156 22.5596 10.0149 22.6665C10.118 22.7731 10.2402 22.8574 10.3746 22.9146C10.509 22.9718 10.6529 23.0009 10.798 23C11.0874 22.9987 11.3647 22.8789 11.5701 22.6665L16.6769 17.342C16.7812 17.2336 16.8637 17.1046 16.9195 16.9625C17.0268 16.6859 17.0268 16.3766 16.9195 16.1Z" fill="white"/>
</svg>