<svg width="79" height="86" viewBox="0 0 79 86" fill="none" xmlns="http://www.w3.org/2000/svg">
<path d="M59.0417 21.5522C59.4522 22.6438 60.2757 23.5301 61.3342 24.0197C62.3927 24.5093 63.6014 24.5628 64.6991 24.1687C66.0664 23.6595 67.1771 22.6304 67.7891 21.3058C68.4011 19.9811 68.4647 18.4683 67.9662 17.097C67.3324 15.3817 66.0451 13.9873 64.3859 13.2186C62.7267 12.45 60.8306 12.3697 59.1124 12.9954C56.9764 13.8026 55.2451 15.4198 54.2944 17.496C53.3437 19.5721 53.2505 21.9394 54.0349 24.0839C54.5278 25.4182 55.2791 26.6423 56.2457 27.686C57.2122 28.7297 58.3751 29.5726 59.6678 30.1663C60.9604 30.7601 62.3575 31.0932 63.779 31.1464C65.2005 31.1997 66.6186 30.9721 67.9521 30.4767C71.3078 29.2214 74.0289 26.6867 75.5189 23.4283C77.0088 20.17 77.1462 16.4538 75.9007 13.0944C74.6958 9.85193 72.5289 7.05505 69.6902 5.07834C66.8515 3.10164 63.4767 2.0395 60.0176 2.03418H47.5713" stroke="#F7F7F7" stroke-width="3.55002" stroke-miterlimit="10" stroke-linecap="round"/>
<path d="M19.766 21.5522C19.3554 22.6438 18.532 23.5301 17.4734 24.0197C16.4149 24.5093 15.2063 24.5628 14.1086 24.1687C12.7412 23.6595 11.6305 22.6304 11.0185 21.3058C10.4066 19.9811 10.3429 18.4683 10.8414 17.097C11.4783 15.3841 12.766 13.9921 14.4242 13.2239C16.0823 12.4557 17.9768 12.3736 19.6953 12.9954C20.7629 13.3892 21.7424 13.9897 22.5778 14.7625C23.4131 15.5354 24.0879 16.4653 24.5634 17.4992C25.039 18.533 25.306 19.6505 25.3492 20.7877C25.3924 21.9248 25.2109 23.0594 24.8152 24.1263C24.3237 25.4602 23.5739 26.6839 22.6086 27.7275C21.6434 28.771 20.4818 29.6139 19.1902 30.2077C17.8987 30.8016 16.5027 31.1348 15.0822 31.1882C13.6617 31.2417 12.2446 31.0143 10.9122 30.5192C9.23933 29.9049 7.70443 28.966 6.39572 27.7565C5.087 26.547 4.0303 25.0907 3.28635 23.4713C2.54241 21.852 2.1259 20.1016 2.06079 18.3207C1.99567 16.5399 2.28323 14.7637 2.90693 13.0944C4.11185 9.85193 6.27875 7.05505 9.11742 5.07834C11.9561 3.10164 15.331 2.0395 18.7901 2.03418H48.7884" stroke="#F7F7F7" stroke-width="3.55002" stroke-miterlimit="10" stroke-linecap="round"/>
<path d="M18.3369 12.3584C23.174 12.3584 31.9571 18.6947 40.5846 18.6947C48.7596 18.6523 56.8638 12.3584 61.2624 12.3584" stroke="#F7F7F7" stroke-width="3.55002" stroke-miterlimit="10" stroke-linecap="round"/>
<path d="M14.6611 40.0518V83.2318H64.1492V40.0518" stroke="#F7F7F7" stroke-width="3.55002" stroke-miterlimit="10" stroke-linecap="round"/>
<path d="M22.9062 83.2316V39.0615" stroke="#F7F7F7" stroke-width="3.55002" stroke-miterlimit="10" stroke-linecap="round"/>
<path d="M31.166 83.2322V33.7441" stroke="#F7F7F7" stroke-width="3.55002" stroke-miterlimit="10" stroke-linecap="round"/>
<path d="M39.4111 83.2331V26.6025H31.8867" stroke="#F7F7F7" stroke-width="3.55002" stroke-miterlimit="10" stroke-linecap="round"/>
<path d="M47.6572 83.2322V33.7441" stroke="#F7F7F7" stroke-width="3.55002" stroke-miterlimit="10" stroke-linecap="round"/>
<path d="M55.9023 83.2316V39.0615" stroke="#F7F7F7" stroke-width="3.55002" stroke-miterlimit="10" stroke-linecap="round"/>
<path d="M39.4121 26.6025H47.3042" stroke="#F7F7F7" stroke-width="3.55002" stroke-miterlimit="10" stroke-linecap="round"/>
</svg>
