<svg width="29" height="31" viewBox="0 0 31 33" fill="none" xmlns="http://www.w3.org/2000/svg">
<path d="M5.298 5.60963C6.288 6.41663 6.663 6.35963 8.532 6.23463L26.152 5.17763C26.527 5.17763 26.215 4.80263 26.089 4.73963L23.162 2.62463C22.605 2.18663 21.855 1.69263 20.422 1.81163L3.365 3.06163C2.74 3.11863 2.615 3.43163 2.865 3.68163L5.298 5.60963ZM6.355 9.71963V28.2556C6.355 29.2506 6.85 29.6256 7.97 29.5626L27.335 28.4426C28.455 28.3796 28.585 27.6976 28.585 26.8856V8.47463C28.585 7.66163 28.272 7.22963 27.585 7.29263L7.351 8.47463C6.601 8.53763 6.356 8.90663 6.356 9.71463L6.355 9.71963ZM25.47 10.7086C25.595 11.2716 25.47 11.8286 24.907 11.8966L23.975 12.0846V25.7666C23.162 26.2046 22.418 26.4546 21.798 26.4546C20.798 26.4546 20.548 26.1416 19.803 25.2096L13.699 15.6266V24.8976L15.631 25.3356C15.631 25.3356 15.631 26.4556 14.074 26.4556L9.777 26.7056C9.652 26.4556 9.777 25.8306 10.215 25.7106L11.335 25.3976V13.1426L9.778 13.0176C9.653 12.4546 9.966 11.6476 10.835 11.5856L15.444 11.2726L21.798 20.9806V12.3916L20.178 12.2036C20.053 11.5216 20.548 11.0216 21.173 10.9636L25.47 10.7086ZM1.933 1.38063L19.678 0.0736276C21.855 -0.114372 22.418 0.0106276 23.787 1.00563L29.454 4.98963C30.386 5.67163 30.699 5.85963 30.699 6.60463V28.4436C30.699 29.8136 30.199 30.6206 28.459 30.7456L7.844 31.9906C6.542 32.0536 5.917 31.8656 5.229 30.9956L1.057 25.5786C0.312 24.5836 0 23.8386 0 22.9696V3.55863C0 2.43863 0.5 1.50663 1.932 1.38163L1.933 1.38063Z" fill="#C3C3C3"/>
</svg>


