<svg width="43" height="43" viewBox="0 0 43 43" fill="none" xmlns="http://www.w3.org/2000/svg">
<path d="M34.2339 22.1731C34.0239 21.933 33.8022 21.6923 33.5689 21.4509C33.7319 21.2797 33.8895 21.1086 34.0419 20.9377C36.919 17.705 38.1333 14.4631 37.0082 12.5141C35.9293 10.6454 32.7199 10.0885 28.7021 10.8697C28.3064 10.9471 27.9128 11.0344 27.5214 11.1317C27.4465 10.8734 27.3668 10.6166 27.2824 10.3613C25.9194 6.25383 23.7176 3.58208 21.4672 3.5835C19.3093 3.58448 17.2237 6.08662 15.8932 9.95735C15.7623 10.3392 15.6412 10.7242 15.5299 11.1125C15.2683 11.0483 15.0055 10.989 14.7416 10.9345C10.5025 10.0642 7.08821 10.6374 5.96524 12.5875C4.88845 14.4576 6.01457 17.5143 8.70382 20.6001C8.97053 20.9054 9.24479 21.2039 9.52659 21.4955C9.19438 21.8377 8.8798 22.1797 8.58659 22.5198C5.96252 25.562 4.9008 28.5687 5.97585 30.4307C7.08613 32.354 10.4524 32.9827 14.5497 32.1765C14.8817 32.1106 15.212 32.0366 15.5403 31.9543C15.6606 32.3742 15.7926 32.7905 15.9362 33.2031C17.2608 36.9961 19.3347 39.4177 21.485 39.4169C23.7057 39.4156 25.9318 36.8139 27.2806 32.8617C27.3871 32.5494 27.4879 32.225 27.5835 31.891C28.0077 31.9966 28.4346 32.0902 28.8643 32.172C32.8119 32.9189 35.9458 32.3314 37.0189 30.4681C38.1271 28.5434 36.9845 25.3152 34.2339 22.1731ZM7.29177 13.3514C7.98311 12.151 10.7734 11.6826 14.4335 12.434C14.6674 12.4821 14.9053 12.5359 15.1473 12.5953C14.7899 14.176 14.5378 15.7787 14.3925 17.3928C13.0719 18.3219 11.8127 19.3354 10.623 20.4272C10.3609 20.1561 10.1058 19.8784 9.85767 19.5942L9.85778 19.5943C7.55357 16.9503 6.64285 14.4783 7.29177 13.3514ZM14.2554 23.6142C13.3406 22.9215 12.4905 22.212 11.7189 21.4982C12.49 20.789 13.3406 20.0818 14.2535 19.391C14.2207 20.0947 14.2044 20.7989 14.2047 21.5037C14.2052 22.2075 14.2221 22.911 14.2554 23.6142V23.6142ZM14.2543 30.6745C12.7014 31.0198 11.0982 31.0763 9.5248 30.8413C9.09349 30.8078 8.67364 30.6861 8.29121 30.4838C7.90877 30.2816 7.57188 30.003 7.30134 29.6654C6.64905 28.5355 7.50158 26.1215 9.74575 23.5196C10.0279 23.1935 10.3193 22.876 10.6199 22.5669C11.8098 23.6644 13.071 24.6819 14.3952 25.6129C14.5425 27.2476 14.7975 28.8708 15.1588 30.4719C14.859 30.5468 14.5575 30.6144 14.2543 30.6745ZM26.9771 16.2706C26.3762 15.892 25.7679 15.5255 25.1521 15.1712C24.5462 14.8224 23.933 14.4867 23.3124 14.1641C24.3749 13.7174 25.4193 13.3359 26.4275 13.025C26.6652 14.0969 26.8486 15.1802 26.9771 16.2706V16.2706ZM17.3409 10.4549C18.4808 7.13829 20.1675 5.1148 21.468 5.11424C22.8531 5.11358 24.6528 7.29696 25.8295 10.8433C25.906 11.0745 25.9782 11.307 26.0463 11.5408C24.5003 12.0203 22.9877 12.6016 21.5185 13.2809C20.0554 12.5936 18.5475 12.0058 17.0053 11.5215C17.1084 11.1633 17.2203 10.8078 17.3409 10.4549ZM16.6236 13.0059C17.6752 13.337 18.7095 13.7209 19.7226 14.1561C18.4674 14.8039 17.2447 15.5094 16.0544 16.2728C16.1982 15.1297 16.3895 14.0345 16.6236 13.0059ZM16.057 26.7313C16.6506 27.1112 17.2528 27.4772 17.8638 27.8291C18.4869 28.1879 19.1184 28.5316 19.7582 28.8603C18.7375 29.3106 17.6943 29.7082 16.6327 30.0516C16.396 29.0087 16.2025 27.8942 16.057 26.7313ZM25.8318 32.367C25.3551 33.8847 24.6032 35.3018 23.6135 36.5474L23.6134 36.5475C23.3688 36.9043 23.0537 37.2071 22.6875 37.4373C22.3213 37.6675 21.9117 37.8202 21.4842 37.8858C20.1795 37.8866 18.5142 35.9419 17.3814 32.6982C17.248 32.3147 17.1253 31.9277 17.0132 31.5372C18.5628 31.0372 20.0768 30.4328 21.5446 29.7281C23.026 30.4118 24.5506 30.9974 26.1087 31.4813C26.0236 31.7787 25.9313 32.0739 25.8318 32.367ZM26.4808 29.9944C25.4609 29.6791 24.4014 29.2911 23.3236 28.8379C23.9312 28.5181 24.5432 28.1804 25.1596 27.8248C25.7921 27.4596 26.4085 27.0852 27.0087 26.7016C26.8892 27.8075 26.713 28.9066 26.4808 29.9945V29.9944ZM27.2804 21.4971C27.2817 22.5852 27.2477 23.6724 27.1785 24.7587C26.2957 25.3561 25.3638 25.9394 24.3942 26.4992C23.4286 27.0567 22.4719 27.569 21.5334 28.0327C20.5458 27.5594 19.5773 27.0494 18.6277 26.5026C17.6836 25.9591 16.761 25.3804 15.8602 24.7665C15.7778 23.6805 15.7364 22.5925 15.7357 21.5026L15.736 21.5029C15.7352 20.4137 15.7758 19.3257 15.8577 18.2388C16.7402 17.6361 17.6653 17.0533 18.6218 16.501C19.5827 15.9462 20.5515 15.436 21.5148 14.9737C22.4902 15.4477 23.4481 15.9557 24.3883 16.4977C25.3318 17.04 26.2569 17.6126 27.1636 18.2154C27.2415 19.3076 27.2804 20.4015 27.2805 21.4971H27.2804ZM28.9945 12.3724C32.4369 11.7029 35.0324 12.1533 35.6826 13.2794C36.3753 14.4792 35.3826 17.1288 32.8987 19.92L32.8986 19.9201C32.7614 20.0741 32.619 20.2287 32.4714 20.384C31.2611 19.2899 29.9778 18.2796 28.6302 17.3599C28.4942 15.7635 28.2515 14.1779 27.9037 12.6139C28.2744 12.5227 28.638 12.4422 28.9945 12.3724V12.3724ZM28.7618 19.3325C29.6708 19.9962 30.5447 20.7065 31.3801 21.4607C30.5484 22.2274 29.6772 22.95 28.7701 23.6256C28.7979 22.9162 28.8116 22.2065 28.8111 21.4964C28.8108 20.7749 28.7944 20.0537 28.7618 19.3325V19.3325ZM35.6922 29.7041C35.041 30.8349 32.5247 31.3064 29.1486 30.6677C28.7617 30.5947 28.3647 30.5077 27.9576 30.4069C28.297 28.8227 28.5289 27.2175 28.6518 25.6021C29.9971 24.6663 31.2765 23.6391 32.4807 22.5278C32.6915 22.7467 32.8919 22.9646 33.0821 23.1815V23.1814C34.159 24.3523 35.0111 25.7115 35.5959 27.191C35.7829 27.581 35.888 28.0053 35.9045 28.4375C35.9211 28.8698 35.8488 29.3008 35.6922 29.7041V29.7041ZM19.8922 18.7014C19.3441 19.0179 18.9022 19.4897 18.6222 20.0573C18.3423 20.6249 18.237 21.2628 18.3196 21.8902C18.4022 22.5177 18.6691 23.1065 19.0864 23.5824C19.5036 24.0582 20.0526 24.3995 20.664 24.5633C21.2753 24.7271 21.9214 24.7059 22.5207 24.5025C23.12 24.299 23.6454 23.9225 24.0307 23.4204C24.4159 22.9183 24.6436 22.3132 24.685 21.6817C24.7264 21.0502 24.5795 20.4206 24.2631 19.8725C23.8387 19.1377 23.1398 18.6015 22.3202 18.3819C21.5005 18.1622 20.6271 18.2772 19.8922 18.7015L19.8922 18.7014Z" fill="#6563FF"/>
</svg>

