<svg width="307" height="196" viewBox="0 0 307 196" fill="none" xmlns="http://www.w3.org/2000/svg">
<path d="M133.973 130.6C133.973 143.367 131.29 154.654 125.924 164.461C120.743 174.083 113.064 181.669 102.887 187.22C92.895 192.586 80.8677 195.269 66.8052 195.269C45.5262 195.269 29.0582 189.441 17.4011 177.783C5.92897 165.941 0.192911 150.213 0.192911 130.6V0.705817H26.5603V128.657C26.5603 143.46 29.8909 154.562 36.5521 161.963C43.2133 169.364 53.2977 173.065 66.8052 173.065C80.4977 173.065 90.6745 169.457 97.3358 162.241C103.997 154.839 107.328 143.645 107.328 128.657V0.705817H133.973V130.6ZM248.102 88.6895L306.388 191.938H276.413L232.282 107.285L187.596 191.938H159.286L216.739 90.0772L164.282 0.705817H194.257L232.837 72.5915L271.694 0.705817H300.004L248.102 88.6895Z" fill="black"/>
</svg>

