<svg width="492" height="193" viewBox="0 0 492 193" fill="none" xmlns="http://www.w3.org/2000/svg">
<path d="M62.8677 192.665C56.3915 192.665 52.1358 189.52 50.1004 183.229L1.8065 24.7469C0.881327 21.4163 0.418742 18.4558 0.418742 15.8653C0.418742 12.3496 1.71398 9.48162 4.30446 7.2612C6.89493 4.85577 10.0405 3.65305 13.7412 3.65305C20.5875 3.65305 25.0283 6.89115 27.0636 13.3673L63.4228 132.992L102.28 13.0898C104.315 6.79863 108.756 3.65305 115.602 3.65305C122.264 3.65305 126.519 6.89115 128.37 13.3673L161.398 133.269L205.807 10.3143C208.212 3.83808 212.653 0.599983 219.129 0.599983C222.83 0.599983 225.975 1.80271 228.566 4.20815C231.156 6.42856 232.451 9.29659 232.451 12.8122C232.451 15.9578 231.989 18.9184 231.064 21.6939L172.5 183.784C171.575 186.559 170.002 188.78 167.782 190.445C165.562 191.925 162.971 192.665 160.011 192.665C152.794 192.665 148.353 189.335 146.688 182.673L114.215 65.5469L76.1902 183.229C75.08 186.744 73.4147 189.242 71.1943 190.722C69.1589 192.018 66.3834 192.665 62.8677 192.665ZM299.022 192.665C285.885 192.665 274.043 189.89 263.496 184.339C253.134 178.603 244.993 170.554 239.071 160.192C233.15 149.645 230.19 137.248 230.19 123C230.19 111.343 232.78 100.241 237.961 89.6939C243.327 78.9619 250.729 70.3578 260.165 63.8816C269.787 57.4054 280.704 54.1673 292.916 54.1673C304.203 54.1673 313.825 56.4803 321.782 61.1061C329.923 65.5469 336.029 70.9129 340.1 77.2041C344.171 83.4952 346.206 89.1388 346.206 94.1347C346.206 96.5401 345.466 98.8531 343.986 101.073C342.505 103.294 340.378 105.237 337.602 106.902L263.218 149.645C265.809 155.381 270.342 159.822 276.818 162.967C283.48 166.113 290.881 167.686 299.022 167.686C309.754 167.686 318.914 163.707 326.5 155.751C329.461 152.79 332.514 151.31 335.659 151.31C339.36 151.31 342.413 152.513 344.818 154.918C347.409 157.324 348.704 160.284 348.704 163.8C348.704 166.761 347.594 169.536 345.373 172.127C340.193 177.863 333.254 182.766 324.557 186.837C316.046 190.722 307.534 192.665 299.022 192.665ZM318.729 90.8041C316.508 86.9184 313.363 84.0503 309.292 82.2C305.221 80.1646 300.41 79.1469 294.859 79.1469C284.312 79.1469 275.431 82.7551 268.214 89.9714C261.183 97.1877 257.112 106.069 256.002 116.616C255.632 119.392 255.447 122.722 255.447 126.608L318.729 90.8041ZM388.175 192.388C384.474 192.388 381.421 191.185 379.016 188.78C376.61 186.374 375.408 183.414 375.408 179.898V18.6408C375.408 14.9401 376.703 11.9796 379.293 9.75916C381.884 7.35373 385.029 6.15101 388.73 6.15101C392.246 6.15101 395.299 7.35373 397.889 9.75916C400.48 11.9796 401.775 14.9401 401.775 18.6408V73.0408C407.141 67.1197 413.062 62.8639 419.538 60.2735C426.014 57.683 433.138 56.3877 440.91 56.3877C450.161 56.3877 458.58 58.7932 466.167 63.6041C473.753 68.2299 479.767 75.1687 484.208 84.4204C488.833 93.6721 491.146 104.867 491.146 118.004C491.146 141.688 485.688 159.822 474.771 172.404C463.854 184.801 448.959 191 430.085 191C424.904 191 419.353 190.167 413.432 188.502C407.696 186.652 403.255 184.616 400.11 182.396V184.061C400.11 185.912 398.907 187.762 396.501 189.612C394.281 191.463 391.506 192.388 388.175 192.388ZM428.142 164.91C441.095 164.91 450.439 160.839 456.175 152.698C462.096 144.556 465.057 132.992 465.057 118.004C465.057 106.532 462.836 97.8354 458.395 91.9143C453.954 85.9932 447.941 83.0326 440.354 83.0326C433.323 83.0326 426.847 84.3279 420.926 86.9184C415.005 89.5088 410.286 93.0245 406.771 97.4653C403.44 101.906 401.775 106.81 401.775 112.176V160.192C411.212 163.337 420.001 164.91 428.142 164.91Z" fill="black"/>
</svg>

