<svg width="37" height="37" viewBox="0 0 37 37" fill="none" xmlns="http://www.w3.org/2000/svg">
<path d="M18.5 37C28.7173 37 37 28.7173 37 18.5C37 8.28273 28.7173 0 18.5 0C8.28273 0 0 8.28273 0 18.5C0 28.7173 8.28273 37 18.5 37Z" fill="#4353FF"/>
<path d="M23.9334 16.303L22.2569 21.587C22.2569 21.1823 21.1006 12.418 21.1006 12.418C18.4413 12.418 17.0306 14.3027 16.2906 16.303L14.2441 21.5986C14.2441 21.217 13.955 16.3492 13.955 16.3492C13.8563 15.2954 13.3745 14.3144 12.601 13.5921C11.8275 12.8697 10.8159 12.456 9.75781 12.4295L11.9316 25.7033C14.7066 25.7033 16.2097 23.8186 16.9844 21.8183L18.7188 17.3089C18.7188 17.4939 19.875 25.7033 19.875 25.7033C21.0097 25.7018 22.1145 25.3391 23.0292 24.6676C23.944 23.9961 24.6211 23.0507 24.9625 21.9686L28.8937 12.418C26.1187 12.418 24.6619 14.3027 23.9219 16.303H23.9334Z" fill="white"/>
</svg>
